<svg width="16" height="22" viewBox="0 0 16 22" fill="none" xmlns="http://www.w3.org/2000/svg">
<path fill-rule="evenodd" clip-rule="evenodd" d="M10.2352 0.997545C9.04275 -0.334469 6.95729 -0.334468 5.76484 0.997545L5.63046 1.14765C5.42788 1.37394 5.13345 1.4959 4.8302 1.47913L4.62903 1.46801C2.84397 1.36932 1.36932 2.84397 1.46801 4.62903L1.47913 4.8302C1.4959 5.13345 1.37394 5.42788 1.14765 5.63046L0.997545 5.76484C-0.334469 6.95729 -0.334468 9.04275 0.997545 10.2352L1.14765 10.3696C1.37394 10.5722 1.4959 10.8666 1.47913 11.1698L1.46801 11.371C1.38121 12.9412 2.51171 14.2711 4.00002 14.5015V21C4.00002 21.3688 4.203 21.7077 4.52816 21.8817C4.85332 22.0557 5.24786 22.0366 5.55472 21.8321L8.00002 20.2019L10.4453 21.8321C10.7522 22.0366 11.1467 22.0557 11.4719 21.8817C11.797 21.7077 12 21.3688 12 21V14.5015C13.4883 14.2711 14.6188 12.9412 14.532 11.371L14.5209 11.1698C14.5041 10.8666 14.6261 10.5722 14.8524 10.3696L15.0025 10.2352C16.3345 9.04275 16.3345 6.95729 15.0025 5.76484L14.8524 5.63046C14.6261 5.42788 14.5041 5.13345 14.5209 4.8302L14.532 4.62903C14.6307 2.84397 13.1561 1.36932 11.371 1.46801L11.1698 1.47913C10.8666 1.4959 10.5722 1.37394 10.3696 1.14765L10.2352 0.997545ZM10 15.238C8.86555 16.256 7.13449 16.256 6.00002 15.238V19.1315L7.44532 18.168C7.78122 17.944 8.21882 17.944 8.55472 18.168L10 19.1315V15.238ZM10.7071 7.70711C11.0976 7.31658 11.0976 6.68342 10.7071 6.29289C10.3166 5.90237 9.68342 5.90237 9.29289 6.29289L7 8.58579L6.70711 8.29289C6.31658 7.90237 5.68342 7.90237 5.29289 8.29289C4.90237 8.68342 4.90237 9.31658 5.29289 9.70711L6.29289 10.7071C6.68342 11.0976 7.31658 11.0976 7.70711 10.7071L10.7071 7.70711Z" fill="#2B50AA"/>
</svg>
