<svg width="24" height="18" viewBox="0 0 24 18" fill="none" xmlns="http://www.w3.org/2000/svg">
<path fill-rule="evenodd" clip-rule="evenodd" d="M0 1C0 0.447715 0.447715 0 1 0H15C15.5523 0 16 0.447715 16 1V3H19C21.7614 3 24 5.23858 24 8V13C24 14.354 23.1031 15.4984 21.871 15.8716C21.7325 16.3289 21.4826 16.7601 21.1213 17.1213C19.9497 18.2929 18.0503 18.2929 16.8787 17.1213C16.5514 16.7941 16.3156 16.4094 16.1711 16H15H8.8289C8.68444 16.4094 8.44855 16.7941 8.12132 17.1213C6.94975 18.2929 5.05025 18.2929 3.87868 17.1213C3.55145 16.7941 3.31555 16.4094 3.1711 16H3C1.34315 16 0 14.6569 0 13V1ZM16.1711 14H16V5H19C20.6569 5 22 6.34315 22 8V13C22 13.2759 21.8883 13.5257 21.7075 13.7067C21.5645 13.4072 21.3691 13.1265 21.1213 12.8787C19.9497 11.7071 18.0503 11.7071 16.8787 12.8787C16.5514 13.2059 16.3156 13.5906 16.1711 14ZM5.29289 14.2929C5.09744 14.4884 5 14.7425 5 15C5 15.2575 5.09744 15.5116 5.29289 15.7071C5.68342 16.0976 6.31658 16.0976 6.70711 15.7071C6.90256 15.5116 7 15.2575 7 15C7 14.7425 6.90256 14.4884 6.70711 14.2929C6.31658 13.9024 5.68342 13.9024 5.29289 14.2929ZM18.2929 14.2929C18.0974 14.4884 18 14.7425 18 15C18 15.2575 18.0974 15.5116 18.2929 15.7071C18.6834 16.0976 19.3166 16.0976 19.7071 15.7071C19.9026 15.5116 20 15.2575 20 15C20 14.7425 19.9026 14.4884 19.7071 14.2929C19.3166 13.9024 18.6834 13.9024 18.2929 14.2929ZM3.96362 7.86719H5.06909V7.33984H3.96362V6.68555H5.18042V6.15625H3.27808V9H3.96362V7.86719ZM6.35112 7.99609H6.72222L7.22417 9H7.95854V8.9707L7.36479 7.82422C7.53537 7.74349 7.66037 7.63802 7.73979 7.50781C7.82052 7.3776 7.86089 7.21354 7.86089 7.01562C7.86089 6.74219 7.76584 6.5306 7.57573 6.38086C7.38563 6.23112 7.12196 6.15625 6.78472 6.15625H5.66558V9H6.35112V7.99609ZM6.78472 7.4668H6.35112V6.68555H6.78472C6.91362 6.68555 7.01128 6.7207 7.07769 6.79102C7.14409 6.86003 7.17729 6.95573 7.17729 7.07812C7.17729 7.20052 7.14409 7.29622 7.07769 7.36523C7.01258 7.43294 6.91493 7.4668 6.78472 7.4668ZM10.2386 7.79492H9.1605V8.47266H10.4339V9H8.47495V6.15625H10.4378V6.68555H9.1605V7.28516H10.2386V7.79492ZM11.5988 7.79492H12.6769V7.28516H11.5988V6.68555H12.8761V6.15625H10.9132V9H12.8722V8.47266H11.5988V7.79492Z" fill="#2B50AA"/>
</svg>
